HIERARCHY
ROOT Hips
{
	OFFSET 0.000000 0.000000 0.000000 
	CHANNELS 6 Xposition Yposition Zposition Yrotation Zrotation Xrotation 
	JOINT Lumbar
	{
		OFFSET 0.000000 0.000000 0.000000 
		CHANNELS 3 Zrotation Xrotation Yrotation
		JOINT Neck
		{
			OFFSET 0.000000 0.445665 0.000000 
			CHANNELS 3 Zrotation Xrotation Yrotation
			End Site
			{
				OFFSET 0.000000 0.227535 0.000000 
			}
		}
		JOINT RightShoulder
		{
			OFFSET 0.019635 0.377685 0.194865 
			CHANNELS 3 Zrotation Xrotation Yrotation
			JOINT RightElbow
			{
				OFFSET 0.000000 -0.243375 0.000000 
				CHANNELS 2 Zrotation Yrotation
				JOINT RightWrist
				{
					OFFSET 0.000000 -0.264825 0.000000 
					CHANNELS 2 Zrotation Xrotation
					End Site
					{
						OFFSET 0.006600 -0.176220 0.000990 
					}
				}
			}
		}
		JOINT LeftShoulder
		{
			OFFSET 0.019635 0.377685 -0.194865 
			CHANNELS 3 Zrotation Xrotation Yrotation
			JOINT LeftElbow
			{
				OFFSET 0.000000 -0.243375 0.000000 
				CHANNELS 2 Zrotation Yrotation
				JOINT LeftWrist
				{
					OFFSET 0.000000 -0.264825 0.000000 
					CHANNELS 2 Zrotation Xrotation
					End Site
					{
						OFFSET 0.006600 -0.176220 -0.000990 
					}
				}
			}
		}
	}
	JOINT RightHip
	{
		OFFSET 0.052140 -0.069960 0.075570 
		CHANNELS 3 Zrotation Xrotation Yrotation
		JOINT RightKnee
		{
			OFFSET 0.000000 -0.402270 0.000000 
			CHANNELS 1 Zrotation
			JOINT RightAnkle
			{
				OFFSET 0.000000 -0.404085 0.000000 
				CHANNELS 3 Zrotation Xrotation Yrotation
				End Site
				{
					OFFSET 0.204105 -0.089430 0.008415 
				}
			}
		}
	}
	JOINT LeftHip
	{
		OFFSET 0.052140 -0.069960 -0.075570 
		CHANNELS 3 Zrotation Xrotation Yrotation
		JOINT LeftKnee
		{
			OFFSET 0.000000 -0.402270 0.000000 
			CHANNELS 1 Zrotation
			JOINT LeftAnkle
			{
				OFFSET 0.000000 -0.404085 0.000000 
				CHANNELS 3 Zrotation Xrotation Yrotation
				End Site
				{
					OFFSET 0.204105 -0.089430 -0.008415 
				}
			}
		}
	}
}
MOTION
Frames: 17
Frame Time: 0.02
-0 0.95578 0 178.54478 0 3.12861 7.99079 -0.21544 -0.87862 -29.42922 -0.2648 1.46032 22.30223 -10.95854 3.17751 10.53186 81.63999 -1.60629 -0.4564 23.00303 8.10625 -9.4869 8.15098 -76.61388 -7.71828 -0.13113 3.67449 1.5319 11.58781 -19.73546 10.53695 -8.4193 -12.56221 2.03502 -3.53223 -4.6084 -15.91708 8.10539 6.73757 11.65009
7e-05 0.95578 -0.00032 178.53815 0 3.14443 7.98739 -0.24314 -0.82438 -29.15872 -0.08506 1.57063 22.01488 -11.13979 3.61178 10.55256 81.79129 -1.25018 -0.18649 22.77429 7.92647 -9.61073 8.16782 -76.52465 -7.71204 -0.03043 3.70048 1.53639 11.60743 -19.78528 10.54169 -8.42518 -12.5582 2.0466 -3.53639 -4.64532 -15.93321 8.09597 6.73125 11.69648
0.00015 0.95577 -0.00064 178.53164 0 3.16014 7.98389 -0.27069 -0.77066 -28.88909 0.09436 1.68061 21.72856 -11.32082 4.04287 10.57318 81.94169 -0.89682 0.08138 22.54617 7.74695 -9.73361 8.18447 -76.43627 -7.70559 0.0697 3.72639 1.54097 11.62708 -19.8348 10.54645 -8.43105 -12.55446 2.0583 -3.54046 -4.68206 -15.94941 8.08667 6.72509 11.74254
0.00023 0.95576 -0.00096 178.52543 0 3.17567 7.97997 -0.29811 -0.71835 -28.6214 0.27381 1.79051 21.4448 -11.50241 4.46579 10.59349 82.09005 -0.55106 0.34363 22.31964 7.56725 -9.85467 8.2007 -76.35037 -7.69849 0.1686 3.7523 1.54597 11.64757 -19.88383 10.5513 -8.43702 -12.55207 2.07061 -3.54429 -4.71846 -15.96629 8.07778 6.71958 11.78781
0.00029 0.95576 -0.00128 178.51748 0 3.19228 7.97831 -0.32642 -0.65838 -28.34472 0.45254 1.90101 21.14895 -11.68063 4.93238 10.61522 82.24932 -0.16513 0.63554 22.08625 7.38913 -9.98628 8.21938 -76.25124 -7.69513 0.27412 3.77828 1.54872 11.66426 -19.93571 10.55563 -8.44257 -12.54286 2.0797 -3.54952 -4.75668 -15.97985 8.06673 6.71076 11.83738
0.0004 0.95574 -0.0016 178.51333 0 3.20652 7.97184 -0.35268 -0.6148 -28.08647 0.633 2.01004 20.87798 -11.8661 5.30587 10.63405 82.38529 0.13551 0.86449 21.86656 7.20743 -10.09482 8.23269 -76.18025 -7.68369 0.36547 3.80403 1.55625 11.68854 -19.98135 10.56109 -8.44895 -12.54785 2.09557 -3.55168 -4.79101 -16.00026 8.06026 6.70884 11.87769
0.00066 0.95568 -0.00191 178.51903 0 3.21482 7.95181 -0.37507 -0.61592 -27.88133 0.82026 2.11857 20.67915 -12.07485 5.42525 10.64418 82.45873 0.19968 0.91891 21.68898 7.01404 -10.14549 8.23235 -76.18744 -7.6503 0.41914 3.83033 1.57747 11.73889 -20.01195 10.56972 -8.45846 -12.59585 2.13162 -3.54597 -4.81526 -16.04217 8.06668 6.72758 11.8935
0.00098 0.95561 -0.00223 178.52866 0 3.22065 7.92697 -0.39509 -0.63371 -27.69433 1.009 2.22507 20.50475 -12.29046 5.45016 10.65156 82.50838 0.17798 0.9099 21.52441 6.81725 -10.17179 8.2264 -76.22292 -7.60869 0.45825 3.85622 1.60343 11.79612 -20.03594 10.57952 -8.46872 -12.65759 2.17427 -3.53709 -4.83548 -16.09057 8.0777 6.75305 11.89979
0.00126 0.95554 -0.00254 178.53697 0 3.22716 7.9045 -0.41505 -0.64421 -27.49715 1.19613 2.33036 20.31651 -12.50123 5.51652 10.66066 82.56783 0.19621 0.93048 21.3507 6.62281 -10.20557 8.22225 -76.2452 -7.57051 0.50319 3.88152 1.62694 11.84679 -20.0615 10.58875 -8.4781 -12.71058 2.21299 -3.52922 -4.85717 -16.13439 8.08648 6.77439 11.90973
0.00157 0.95547 -0.00286 178.54348 0 3.23538 7.88124 -0.43976 -0.65343 -27.30751 1.38763 2.44472 20.13923 -12.71968 5.58929 10.66767 82.63157 0.21059 0.94802 21.19002 6.42455 -10.25474 8.22119 -76.26911 -7.53344 0.55161 3.91001 1.65178 11.91151 -20.0929 10.59809 -8.48961 -12.77396 2.25566 -3.52303 -4.88048 -16.1851 8.09588 6.80011 11.92244
0.00185 0.95541 -0.00316 178.55446 0 3.23962 7.85849 -0.45405 -0.66937 -27.10728 1.56982 2.5396 19.94572 -12.9232 5.62603 10.67852 82.68068 0.21259 0.95658 21.00608 6.23399 -10.26576 8.21247 -76.29612 -7.49235 0.58912 3.93188 1.67487 11.94917 -20.11085 10.60753 -8.49704 -12.81917 2.29163 -3.51276 -4.89936 -16.22299 8.10506 6.81847 11.9272
0.00207 0.95535 -0.0034 178.57866 0 3.23207 7.83829 -0.43985 -0.69896 -26.86671 1.73112 2.58235 19.69489 -13.08898 5.58866 10.69957 82.69558 0.20164 0.95799 20.7483 6.06043 -10.18014 8.18299 -76.32673 -7.44008 0.60201 3.93466 1.69289 11.90568 -20.09071 10.61668 -8.49137 -12.80916 2.30817 -3.4906 -4.9079 -16.22424 8.11279 6.81337 11.91178
0.00227 0.95529 -0.00362 178.60689 0 3.2208 7.81878 -0.41526 -0.73494 -26.61641 1.88215 2.60542 19.42837 -13.23871 5.51789 10.72482 82.69648 0.18118 0.95216 20.46819 5.89554 -10.05649 8.14619 -76.35918 -7.38442 0.60413 3.93098 1.70885 11.83563 -20.05778 10.62598 -8.48187 -12.78072 2.31771 -3.46471 -4.91206 -16.21248 8.12014 6.80091 11.88887
0.00247 0.95523 -0.00385 178.63206 0 3.21219 7.79895 -0.39563 -0.7685 -26.37452 2.03439 2.63667 19.17299 -13.39224 5.46091 10.74881 82.70356 0.16495 0.94826 20.20214 5.73014 -9.94844 8.11337 -76.38944 -7.33171 0.60982 3.93087 1.72511 11.78084 -20.03236 10.63536 -8.47519 -12.7618 2.32993 -3.44147 -4.91751 -16.20623 8.12739 6.79278 11.86968
0.00269 0.95517 -0.00408 178.66254 0 3.1996 7.77892 -0.37503 -0.8004 -26.1151 2.20088 2.67081 18.90049 -13.56015 5.40642 10.76982 82.71066 0.14608 0.94787 19.91873 5.55064 -9.84655 8.07755 -76.4262 -7.27286 0.62032 3.92805 1.74409 11.71276 -19.99943 10.64401 -8.46395 -12.73846 2.3442 -3.41414 -4.92534 -16.20121 8.13567 6.78068 11.84853
0.00288 0.95511 -0.0043 178.68289 0 3.19423 7.7596 -0.35386 -0.83728 -25.89129 2.3357 2.69459 18.66092 -13.69498 5.34012 10.79827 82.7146 0.13158 0.9393 19.66762 5.40197 -9.72325 8.04636 -76.44976 -7.22598 0.61877 3.92938 1.75702 11.66607 -19.9793 10.65435 -8.4613 -12.71984 2.35282 -3.39442 -4.92776 -16.19133 8.14199 6.77508 11.83018
0.00299 0.95509 -0.00449 178.67379 0 3.21149 7.74173 -0.33494 -0.88509 -25.75618 2.38186 2.69302 18.50658 -13.73645 5.24889 10.84451 82.71418 0.13189 0.91025 19.49945 5.34098 -9.5489 8.02909 -76.43325 -7.21394 0.58368 3.94362 1.75225 11.68408 -19.997 10.66804 -8.48337 -12.71801 2.34437 -3.39723 -4.91167 -16.1641 8.14018 6.78855 11.8181
